<svg width="256" height="256" viewBox="0 0 256 256" fill="none" xmlns="http://www.w3.org/2000/svg">
<g clip-path="url(#clip0_25209_118841)">
<rect width="256" height="256" fill="white"/>
<path fill-rule="evenodd" clip-rule="evenodd" d="M220.444 128C220.444 179.056 179.056 220.444 128 220.444C76.9443 220.444 35.5555 179.056 35.5555 128C35.5555 76.9443 76.9443 35.5556 128 35.5556C179.056 35.5556 220.444 76.9443 220.444 128ZM128 203.496C86.3045 203.496 52.5037 169.695 52.5037 128C52.5037 86.3045 86.3045 52.5037 128 52.5037C132.911 52.5037 137.712 52.9726 142.362 53.8681C144.455 54.2712 144.007 57.3383 141.89 57.5812C107.049 61.579 78.6963 91.7391 78.6963 128C78.6963 164.261 107.049 194.421 141.889 198.419C144.007 198.662 144.455 201.729 142.362 202.132C137.712 203.027 132.911 203.496 128 203.496ZM182.402 98.8665C183.976 99.4755 183.716 101.703 182.156 102.346C172.074 106.499 164.978 116.421 164.978 128C164.978 139.579 172.074 149.501 182.156 153.654C183.716 154.297 183.976 156.524 182.402 157.133C178.908 158.485 175.111 159.226 171.141 159.226C153.895 159.226 139.915 145.245 139.915 128C139.915 110.755 153.895 96.7743 171.141 96.7743C175.111 96.7743 178.908 97.5153 182.402 98.8665ZM121.837 128C121.837 103.973 139.024 83.9599 161.775 79.5848C163.739 79.207 164.121 76.4121 162.176 75.9429C158.134 74.9675 153.912 74.4507 149.57 74.4507C119.996 74.4507 96.0211 98.4255 96.0211 128C96.0211 157.574 119.996 181.549 149.57 181.549C153.912 181.549 158.134 181.033 162.176 180.057C164.121 179.588 163.739 176.793 161.775 176.415C139.024 172.04 121.837 152.027 121.837 128ZM192.711 135.396C188.627 135.396 185.316 132.084 185.316 128C185.316 123.916 188.627 120.604 192.711 120.604C196.796 120.604 200.107 123.916 200.107 128C200.107 132.084 196.796 135.396 192.711 135.396Z" fill="#604EFF"/>
<path fill-rule="evenodd" clip-rule="evenodd" d="M220.444 128C220.444 179.056 179.056 220.444 128 220.444C76.9443 220.444 35.5555 179.056 35.5555 128C35.5555 76.9443 76.9443 35.5556 128 35.5556C179.056 35.5556 220.444 76.9443 220.444 128ZM128 203.496C86.3045 203.496 52.5037 169.695 52.5037 128C52.5037 86.3045 86.3045 52.5037 128 52.5037C132.911 52.5037 137.712 52.9726 142.362 53.8681C144.455 54.2712 144.007 57.3383 141.89 57.5812C107.049 61.579 78.6963 91.7391 78.6963 128C78.6963 164.261 107.049 194.421 141.889 198.419C144.007 198.662 144.455 201.729 142.362 202.132C137.712 203.027 132.911 203.496 128 203.496ZM182.402 98.8665C183.976 99.4755 183.716 101.703 182.156 102.346C172.074 106.499 164.978 116.421 164.978 128C164.978 139.579 172.074 149.501 182.156 153.654C183.716 154.297 183.976 156.524 182.402 157.133C178.908 158.485 175.111 159.226 171.141 159.226C153.895 159.226 139.915 145.245 139.915 128C139.915 110.755 153.895 96.7743 171.141 96.7743C175.111 96.7743 178.908 97.5153 182.402 98.8665ZM121.837 128C121.837 103.973 139.024 83.9599 161.775 79.5848C163.739 79.207 164.121 76.4121 162.176 75.9429C158.134 74.9675 153.912 74.4507 149.57 74.4507C119.996 74.4507 96.0211 98.4255 96.0211 128C96.0211 157.574 119.996 181.549 149.57 181.549C153.912 181.549 158.134 181.033 162.176 180.057C164.121 179.588 163.739 176.793 161.775 176.415C139.024 172.04 121.837 152.027 121.837 128ZM192.711 135.396C188.627 135.396 185.316 132.084 185.316 128C185.316 123.916 188.627 120.604 192.711 120.604C196.796 120.604 200.107 123.916 200.107 128C200.107 132.084 196.796 135.396 192.711 135.396Z" fill="url(#paint0_radial_25209_118841)"/>
</g>
<defs>
<radialGradient id="paint0_radial_25209_118841" cx="0" cy="0" r="1" gradientUnits="userSpaceOnUse" gradientTransform="translate(-15 239.222) rotate(-28.9846) scale(229.526)">
<stop stop-color="#0066FF"/>
<stop offset="1" stop-color="#0066FF" stop-opacity="0"/>
</radialGradient>
<clipPath id="clip0_25209_118841">
<rect width="256" height="256" fill="white"/>
</clipPath>
</defs>
</svg>
