<svg width="36" height="36" viewBox="0 0 36 36" fill="none" xmlns="http://www.w3.org/2000/svg">
<rect width="36" height="36" fill="url(#paint0_linear_16236_269597)"/>
<path fill-rule="evenodd" clip-rule="evenodd" d="M30 18C30 24.6274 24.6274 30 18 30C11.3726 30 6 24.6274 6 18C6 11.3726 11.3726 6 18 6C24.6274 6 30 11.3726 30 18ZM18 27.8C12.5876 27.8 8.2 23.4124 8.2 18C8.2 12.5876 12.5876 8.2 18 8.2C18.6375 8.2 19.2608 8.26087 19.8643 8.37711C20.136 8.42943 20.0778 8.82757 19.803 8.8591C15.2803 9.37805 11.6 13.2931 11.6 18C11.6 22.7069 15.2803 26.622 19.803 27.1409C20.0778 27.1724 20.136 27.5706 19.8643 27.6229C19.2607 27.7391 18.6375 27.8 18 27.8ZM25.0618 14.2183C25.2661 14.2973 25.2324 14.5865 25.0298 14.6699C23.7212 15.209 22.8 16.4969 22.8 18C22.8 19.5031 23.7212 20.791 25.0298 21.3301C25.2324 21.4135 25.2661 21.7027 25.0618 21.7817C24.6083 21.9571 24.1154 22.0533 23.6 22.0533C21.3614 22.0533 19.5467 20.2386 19.5467 18C19.5467 15.7614 21.3614 13.9467 23.6 13.9467C24.1154 13.9467 24.6083 14.0429 25.0618 14.2183ZM17.2 18C17.2 14.8811 19.431 12.2833 22.3842 11.7153C22.6392 11.6663 22.6888 11.3035 22.4363 11.2426C21.9116 11.116 21.3636 11.0489 20.8 11.0489C16.961 11.0489 13.8489 14.161 13.8489 18C13.8489 21.839 16.961 24.9511 20.8 24.9511C21.3636 24.9511 21.9116 24.884 22.4363 24.7574C22.6888 24.6965 22.6392 24.3337 22.3842 24.2847C19.431 23.7167 17.2 21.1189 17.2 18ZM26.4 18.96C25.8698 18.96 25.44 18.5302 25.44 18C25.44 17.4698 25.8698 17.04 26.4 17.04C26.9302 17.04 27.36 17.4698 27.36 18C27.36 18.5302 26.9302 18.96 26.4 18.96Z" fill="url(#paint1_radial_16236_269597)"/>
<defs>
<linearGradient id="paint0_linear_16236_269597" x1="18" y1="0" x2="18" y2="36" gradientUnits="userSpaceOnUse">
<stop stop-color="white"/>
<stop offset="1" stop-color="#FFEAEA"/>
</linearGradient>
<radialGradient id="paint1_radial_16236_269597" cx="0" cy="0" r="1" gradientUnits="userSpaceOnUse" gradientTransform="translate(14.1923 30.8077) rotate(-74.6547) scale(25.7248 17.7512)">
<stop offset="0.0790625" stop-color="#604EFF"/>
<stop offset="0.567708" stop-color="#D715E8"/>
<stop offset="1" stop-color="#FF782D"/>
</radialGradient>
</defs>
</svg>
